<mxfile host="app.diagrams.net" agent="Mozilla/5.0 (Windows NT 10.0; Win64; x64) AppleWebKit/537.36 (KHTML, like Gecko) Chrome/128.0.0.0 Safari/537.36" version="24.7.12">
  <diagram name="Page-1" id="G4f53u-scZTR7g75k5S0">
    <mxGraphModel dx="1434" dy="772" grid="1" gridSize="10" guides="1" tooltips="1" connect="1" arrows="1" fold="1" page="1" pageScale="1" pageWidth="850" pageHeight="1100" math="0" shadow="0">
      <root>
        <mxCell id="0" />
        <mxCell id="1" parent="0" />
        <mxCell id="qND9aOdXwc2yptjSojC9-1" value="Airline" style="swimlane;fontStyle=1;align=center;verticalAlign=top;childLayout=stackLayout;horizontal=1;startSize=26;horizontalStack=0;resizeParent=1;resizeParentMax=0;resizeLast=0;collapsible=1;marginBottom=0;whiteSpace=wrap;html=1;" vertex="1" parent="1">
          <mxGeometry x="100" y="120" width="160" height="60" as="geometry" />
        </mxCell>
        <mxCell id="qND9aOdXwc2yptjSojC9-2" value="ID" style="text;strokeColor=none;fillColor=none;align=left;verticalAlign=top;spacingLeft=4;spacingRight=4;overflow=hidden;rotatable=0;points=[[0,0.5],[1,0.5]];portConstraint=eastwest;whiteSpace=wrap;html=1;" vertex="1" parent="qND9aOdXwc2yptjSojC9-1">
          <mxGeometry y="26" width="160" height="26" as="geometry" />
        </mxCell>
        <mxCell id="qND9aOdXwc2yptjSojC9-3" value="" style="line;strokeWidth=1;fillColor=none;align=left;verticalAlign=middle;spacingTop=-1;spacingLeft=3;spacingRight=3;rotatable=0;labelPosition=right;points=[];portConstraint=eastwest;strokeColor=inherit;" vertex="1" parent="qND9aOdXwc2yptjSojC9-1">
          <mxGeometry y="52" width="160" height="8" as="geometry" />
        </mxCell>
        <mxCell id="qND9aOdXwc2yptjSojC9-4" value="Aircrafttype" style="swimlane;fontStyle=1;align=center;verticalAlign=top;childLayout=stackLayout;horizontal=1;startSize=26;horizontalStack=0;resizeParent=1;resizeParentMax=0;resizeLast=0;collapsible=1;marginBottom=0;whiteSpace=wrap;html=1;" vertex="1" parent="1">
          <mxGeometry x="610" y="170" width="160" height="78" as="geometry" />
        </mxCell>
        <mxCell id="qND9aOdXwc2yptjSojC9-5" value=" Required Pilots,&lt;div&gt;Minimum Captain Level.&lt;/div&gt;" style="text;strokeColor=none;fillColor=none;align=left;verticalAlign=top;spacingLeft=4;spacingRight=4;overflow=hidden;rotatable=0;points=[[0,0.5],[1,0.5]];portConstraint=eastwest;whiteSpace=wrap;html=1;" vertex="1" parent="qND9aOdXwc2yptjSojC9-4">
          <mxGeometry y="26" width="160" height="44" as="geometry" />
        </mxCell>
        <mxCell id="qND9aOdXwc2yptjSojC9-6" value="" style="line;strokeWidth=1;fillColor=none;align=left;verticalAlign=middle;spacingTop=-1;spacingLeft=3;spacingRight=3;rotatable=0;labelPosition=right;points=[];portConstraint=eastwest;strokeColor=inherit;" vertex="1" parent="qND9aOdXwc2yptjSojC9-4">
          <mxGeometry y="70" width="160" height="8" as="geometry" />
        </mxCell>
        <mxCell id="qND9aOdXwc2yptjSojC9-7" value="Flight" style="swimlane;fontStyle=1;align=center;verticalAlign=top;childLayout=stackLayout;horizontal=1;startSize=26;horizontalStack=0;resizeParent=1;resizeParentMax=0;resizeLast=0;collapsible=1;marginBottom=0;whiteSpace=wrap;html=1;" vertex="1" parent="1">
          <mxGeometry x="160" y="330" width="180" height="128" as="geometry" />
        </mxCell>
        <mxCell id="qND9aOdXwc2yptjSojC9-8" value="ID&lt;div&gt;Departure time&lt;/div&gt;&lt;div&gt;Arrival time&lt;/div&gt;&lt;div&gt;Pilot&lt;br&gt;Co-Pilot&lt;/div&gt;" style="text;strokeColor=none;fillColor=none;align=left;verticalAlign=top;spacingLeft=4;spacingRight=4;overflow=hidden;rotatable=0;points=[[0,0.5],[1,0.5]];portConstraint=eastwest;whiteSpace=wrap;html=1;" vertex="1" parent="qND9aOdXwc2yptjSojC9-7">
          <mxGeometry y="26" width="180" height="94" as="geometry" />
        </mxCell>
        <mxCell id="qND9aOdXwc2yptjSojC9-9" value="" style="line;strokeWidth=1;fillColor=none;align=left;verticalAlign=middle;spacingTop=-1;spacingLeft=3;spacingRight=3;rotatable=0;labelPosition=right;points=[];portConstraint=eastwest;strokeColor=inherit;" vertex="1" parent="qND9aOdXwc2yptjSojC9-7">
          <mxGeometry y="120" width="180" height="8" as="geometry" />
        </mxCell>
        <mxCell id="qND9aOdXwc2yptjSojC9-10" value="Aircraft" style="swimlane;fontStyle=1;align=center;verticalAlign=top;childLayout=stackLayout;horizontal=1;startSize=26;horizontalStack=0;resizeParent=1;resizeParentMax=0;resizeLast=0;collapsible=1;marginBottom=0;whiteSpace=wrap;html=1;" vertex="1" parent="1">
          <mxGeometry x="610" y="350" width="160" height="88" as="geometry" />
        </mxCell>
        <mxCell id="qND9aOdXwc2yptjSojC9-11" value="State&lt;div&gt;Status&lt;/div&gt;" style="text;strokeColor=none;fillColor=none;align=left;verticalAlign=top;spacingLeft=4;spacingRight=4;overflow=hidden;rotatable=0;points=[[0,0.5],[1,0.5]];portConstraint=eastwest;whiteSpace=wrap;html=1;" vertex="1" parent="qND9aOdXwc2yptjSojC9-10">
          <mxGeometry y="26" width="160" height="54" as="geometry" />
        </mxCell>
        <mxCell id="qND9aOdXwc2yptjSojC9-12" value="" style="line;strokeWidth=1;fillColor=none;align=left;verticalAlign=middle;spacingTop=-1;spacingLeft=3;spacingRight=3;rotatable=0;labelPosition=right;points=[];portConstraint=eastwest;strokeColor=inherit;" vertex="1" parent="qND9aOdXwc2yptjSojC9-10">
          <mxGeometry y="80" width="160" height="8" as="geometry" />
        </mxCell>
        <mxCell id="qND9aOdXwc2yptjSojC9-13" value="Pilot" style="swimlane;fontStyle=1;align=center;verticalAlign=top;childLayout=stackLayout;horizontal=1;startSize=26;horizontalStack=0;resizeParent=1;resizeParentMax=0;resizeLast=0;collapsible=1;marginBottom=0;whiteSpace=wrap;html=1;" vertex="1" parent="1">
          <mxGeometry x="580" y="540" width="230" height="60" as="geometry" />
        </mxCell>
        <mxCell id="qND9aOdXwc2yptjSojC9-14" value="Experience Level" style="text;strokeColor=none;fillColor=none;align=left;verticalAlign=top;spacingLeft=4;spacingRight=4;overflow=hidden;rotatable=0;points=[[0,0.5],[1,0.5]];portConstraint=eastwest;whiteSpace=wrap;html=1;" vertex="1" parent="qND9aOdXwc2yptjSojC9-13">
          <mxGeometry y="26" width="230" height="26" as="geometry" />
        </mxCell>
        <mxCell id="qND9aOdXwc2yptjSojC9-15" value="" style="line;strokeWidth=1;fillColor=none;align=left;verticalAlign=middle;spacingTop=-1;spacingLeft=3;spacingRight=3;rotatable=0;labelPosition=right;points=[];portConstraint=eastwest;strokeColor=inherit;" vertex="1" parent="qND9aOdXwc2yptjSojC9-13">
          <mxGeometry y="52" width="230" height="8" as="geometry" />
        </mxCell>
        <mxCell id="qND9aOdXwc2yptjSojC9-16" value="Airport" style="swimlane;fontStyle=1;align=center;verticalAlign=top;childLayout=stackLayout;horizontal=1;startSize=26;horizontalStack=0;resizeParent=1;resizeParentMax=0;resizeLast=0;collapsible=1;marginBottom=0;whiteSpace=wrap;html=1;" vertex="1" parent="1">
          <mxGeometry x="170" y="600" width="160" height="60" as="geometry" />
        </mxCell>
        <mxCell id="qND9aOdXwc2yptjSojC9-17" value="Unique Identifier" style="text;strokeColor=none;fillColor=none;align=left;verticalAlign=top;spacingLeft=4;spacingRight=4;overflow=hidden;rotatable=0;points=[[0,0.5],[1,0.5]];portConstraint=eastwest;whiteSpace=wrap;html=1;" vertex="1" parent="qND9aOdXwc2yptjSojC9-16">
          <mxGeometry y="26" width="160" height="26" as="geometry" />
        </mxCell>
        <mxCell id="qND9aOdXwc2yptjSojC9-18" value="" style="line;strokeWidth=1;fillColor=none;align=left;verticalAlign=middle;spacingTop=-1;spacingLeft=3;spacingRight=3;rotatable=0;labelPosition=right;points=[];portConstraint=eastwest;strokeColor=inherit;" vertex="1" parent="qND9aOdXwc2yptjSojC9-16">
          <mxGeometry y="52" width="160" height="8" as="geometry" />
        </mxCell>
        <mxCell id="qND9aOdXwc2yptjSojC9-19" value="have" style="endArrow=open;html=1;endSize=12;startArrow=diamondThin;startSize=14;startFill=0;edgeStyle=orthogonalEdgeStyle;rounded=0;exitX=1;exitY=0.5;exitDx=0;exitDy=0;entryX=-0.025;entryY=0.324;entryDx=0;entryDy=0;entryPerimeter=0;" edge="1" parent="1" target="qND9aOdXwc2yptjSojC9-11">
          <mxGeometry relative="1" as="geometry">
            <mxPoint x="260" y="154" as="sourcePoint" />
            <mxPoint x="614.96" y="382.0160000000001" as="targetPoint" />
            <Array as="points">
              <mxPoint x="435" y="154" />
              <mxPoint x="435" y="395" />
              <mxPoint x="610" y="395" />
              <mxPoint x="610" y="393" />
            </Array>
          </mxGeometry>
        </mxCell>
        <mxCell id="qND9aOdXwc2yptjSojC9-20" value="1" style="edgeLabel;resizable=0;html=1;align=left;verticalAlign=top;" connectable="0" vertex="1" parent="qND9aOdXwc2yptjSojC9-19">
          <mxGeometry x="-1" relative="1" as="geometry" />
        </mxCell>
        <mxCell id="qND9aOdXwc2yptjSojC9-21" value="0....*" style="edgeLabel;resizable=0;html=1;align=right;verticalAlign=top;" connectable="0" vertex="1" parent="qND9aOdXwc2yptjSojC9-19">
          <mxGeometry x="1" relative="1" as="geometry" />
        </mxCell>
        <mxCell id="qND9aOdXwc2yptjSojC9-22" value="operate" style="endArrow=open;html=1;endSize=12;startArrow=diamondThin;startSize=14;startFill=0;edgeStyle=orthogonalEdgeStyle;rounded=0;exitX=0;exitY=0.5;exitDx=0;exitDy=0;entryX=-0.021;entryY=0.134;entryDx=0;entryDy=0;entryPerimeter=0;" edge="1" parent="1" source="qND9aOdXwc2yptjSojC9-2" target="qND9aOdXwc2yptjSojC9-8">
          <mxGeometry relative="1" as="geometry">
            <mxPoint x="490" y="350" as="sourcePoint" />
            <mxPoint x="650" y="350" as="targetPoint" />
          </mxGeometry>
        </mxCell>
        <mxCell id="qND9aOdXwc2yptjSojC9-23" value="1" style="edgeLabel;resizable=0;html=1;align=left;verticalAlign=top;" connectable="0" vertex="1" parent="qND9aOdXwc2yptjSojC9-22">
          <mxGeometry x="-1" relative="1" as="geometry" />
        </mxCell>
        <mxCell id="qND9aOdXwc2yptjSojC9-24" value="0....*" style="edgeLabel;resizable=0;html=1;align=right;verticalAlign=top;" connectable="0" vertex="1" parent="qND9aOdXwc2yptjSojC9-22">
          <mxGeometry x="1" relative="1" as="geometry" />
        </mxCell>
        <mxCell id="qND9aOdXwc2yptjSojC9-25" value="uses" style="endArrow=open;html=1;endSize=12;startArrow=diamondThin;startSize=14;startFill=0;edgeStyle=orthogonalEdgeStyle;rounded=0;exitX=-0.002;exitY=0.785;exitDx=0;exitDy=0;exitPerimeter=0;entryX=1.005;entryY=0.165;entryDx=0;entryDy=0;entryPerimeter=0;" edge="1" parent="1" source="qND9aOdXwc2yptjSojC9-11" target="qND9aOdXwc2yptjSojC9-8">
          <mxGeometry x="-0.1785" y="12" relative="1" as="geometry">
            <mxPoint x="490" y="350" as="sourcePoint" />
            <mxPoint x="350" y="380" as="targetPoint" />
            <Array as="points">
              <mxPoint x="420" y="418" />
              <mxPoint x="420" y="371" />
            </Array>
            <mxPoint as="offset" />
          </mxGeometry>
        </mxCell>
        <mxCell id="qND9aOdXwc2yptjSojC9-26" value="1" style="edgeLabel;resizable=0;html=1;align=left;verticalAlign=top;" connectable="0" vertex="1" parent="qND9aOdXwc2yptjSojC9-25">
          <mxGeometry x="-1" relative="1" as="geometry" />
        </mxCell>
        <mxCell id="qND9aOdXwc2yptjSojC9-27" value="0...*" style="edgeLabel;resizable=0;html=1;align=right;verticalAlign=top;" connectable="0" vertex="1" parent="qND9aOdXwc2yptjSojC9-25">
          <mxGeometry x="1" relative="1" as="geometry" />
        </mxCell>
        <mxCell id="qND9aOdXwc2yptjSojC9-28" style="edgeStyle=orthogonalEdgeStyle;rounded=0;orthogonalLoop=1;jettySize=auto;html=1;entryX=0;entryY=0.5;entryDx=0;entryDy=0;exitX=1.021;exitY=0.888;exitDx=0;exitDy=0;exitPerimeter=0;" edge="1" parent="1" source="qND9aOdXwc2yptjSojC9-8" target="qND9aOdXwc2yptjSojC9-14">
          <mxGeometry relative="1" as="geometry">
            <mxPoint x="530" y="480" as="sourcePoint" />
          </mxGeometry>
        </mxCell>
        <mxCell id="qND9aOdXwc2yptjSojC9-29" value="1" style="edgeLabel;html=1;align=center;verticalAlign=middle;resizable=0;points=[];" vertex="1" connectable="0" parent="qND9aOdXwc2yptjSojC9-28">
          <mxGeometry x="-0.8989" relative="1" as="geometry">
            <mxPoint as="offset" />
          </mxGeometry>
        </mxCell>
        <mxCell id="qND9aOdXwc2yptjSojC9-30" value="1" style="edgeLabel;html=1;align=center;verticalAlign=middle;resizable=0;points=[];" vertex="1" connectable="0" parent="qND9aOdXwc2yptjSojC9-28">
          <mxGeometry x="0.9178" y="2" relative="1" as="geometry">
            <mxPoint as="offset" />
          </mxGeometry>
        </mxCell>
        <mxCell id="qND9aOdXwc2yptjSojC9-31" value="has" style="edgeLabel;html=1;align=center;verticalAlign=middle;resizable=0;points=[];" vertex="1" connectable="0" parent="qND9aOdXwc2yptjSojC9-28">
          <mxGeometry x="0.1324" y="-2" relative="1" as="geometry">
            <mxPoint as="offset" />
          </mxGeometry>
        </mxCell>
        <mxCell id="qND9aOdXwc2yptjSojC9-32" style="edgeStyle=orthogonalEdgeStyle;rounded=0;orthogonalLoop=1;jettySize=auto;html=1;entryX=0;entryY=0.867;entryDx=0;entryDy=0;entryPerimeter=0;" edge="1" parent="1" source="qND9aOdXwc2yptjSojC9-17" target="qND9aOdXwc2yptjSojC9-8">
          <mxGeometry relative="1" as="geometry" />
        </mxCell>
        <mxCell id="qND9aOdXwc2yptjSojC9-33" value="Departure/Arrival" style="edgeLabel;html=1;align=center;verticalAlign=middle;resizable=0;points=[];" vertex="1" connectable="0" parent="qND9aOdXwc2yptjSojC9-32">
          <mxGeometry x="0.0418" y="-2" relative="1" as="geometry">
            <mxPoint as="offset" />
          </mxGeometry>
        </mxCell>
        <mxCell id="qND9aOdXwc2yptjSojC9-34" value="" style="endArrow=none;html=1;edgeStyle=orthogonalEdgeStyle;rounded=0;exitX=0.991;exitY=0.306;exitDx=0;exitDy=0;exitPerimeter=0;entryX=1;entryY=0.5;entryDx=0;entryDy=0;" edge="1" parent="1" source="qND9aOdXwc2yptjSojC9-11" target="qND9aOdXwc2yptjSojC9-5">
          <mxGeometry relative="1" as="geometry">
            <mxPoint x="490" y="440" as="sourcePoint" />
            <mxPoint x="650" y="440" as="targetPoint" />
            <Array as="points">
              <mxPoint x="840" y="393" />
              <mxPoint x="840" y="218" />
            </Array>
          </mxGeometry>
        </mxCell>
        <mxCell id="qND9aOdXwc2yptjSojC9-35" value="parent" style="edgeLabel;resizable=0;html=1;align=left;verticalAlign=bottom;" connectable="0" vertex="1" parent="qND9aOdXwc2yptjSojC9-34">
          <mxGeometry x="-1" relative="1" as="geometry" />
        </mxCell>
        <mxCell id="qND9aOdXwc2yptjSojC9-36" value="child" style="edgeLabel;resizable=0;html=1;align=right;verticalAlign=bottom;" connectable="0" vertex="1" parent="qND9aOdXwc2yptjSojC9-34">
          <mxGeometry x="1" relative="1" as="geometry">
            <mxPoint x="30" y="2" as="offset" />
          </mxGeometry>
        </mxCell>
      </root>
    </mxGraphModel>
  </diagram>
</mxfile>
